<svg width="86" height="22" viewBox="0 0 86 22" fill="none" xmlns="http://www.w3.org/2000/svg">
<path d="M0.16043 14.4567C-0.1396 14.9204 -0.00693307 15.5395 0.456749 15.8396L8.01288 20.7288C8.47656 21.0289 9.09567 20.8962 9.3957 20.4325C9.69573 19.9688 9.56306 19.3497 9.09938 19.0497L2.38282 14.7037L6.72883 7.98712C7.02886 7.52344 6.89619 6.90433 6.43251 6.6043C5.96883 6.30427 5.34972 6.43694 5.04969 6.90062L0.16043 14.4567ZM52 20L51.6981 20.9533L51.9595 21.0361L52.2265 20.974L52 20ZM1 15C1.20953 15.9778 1.20943 15.9778 1.20934 15.9778C1.20932 15.9778 1.20923 15.9779 1.20919 15.9779C1.20911 15.9779 1.20906 15.9779 1.20904 15.9779C1.209 15.9779 1.20908 15.9779 1.20928 15.9779C1.20969 15.9778 1.21059 15.9776 1.21198 15.9773C1.21475 15.9767 1.21947 15.9757 1.22614 15.9743C1.23947 15.9716 1.26057 15.9673 1.28934 15.9615C1.3469 15.95 1.43516 15.9329 1.55345 15.9111C1.79003 15.8675 2.14666 15.8054 2.61778 15.7334C3.56005 15.5894 4.96014 15.4057 6.77357 15.2509L6.60339 13.2581C4.7434 13.417 3.29925 13.606 2.31563 13.7564C1.82381 13.8315 1.44709 13.897 1.19105 13.9442C1.06303 13.9678 0.965168 13.9868 0.898174 14.0001C0.864677 14.0068 0.838895 14.0121 0.820916 14.0158C0.811926 14.0177 0.804887 14.0191 0.799809 14.0202C0.79727 14.0208 0.795222 14.0212 0.793665 14.0215C0.792886 14.0217 0.792231 14.0218 0.791699 14.0219C0.791432 14.022 0.791197 14.022 0.790992 14.0221C0.79089 14.0221 0.79076 14.0221 0.790709 14.0221C0.790586 14.0222 0.790471 14.0222 1 15ZM12.4402 14.9567C15.6463 14.8896 19.4672 14.9681 23.8094 15.3362L23.9783 13.3433C19.5616 12.9689 15.6702 12.8886 12.3984 12.9571L12.4402 14.9567ZM29.4743 15.9539C32.9661 16.4184 36.7176 17.0711 40.6921 17.9688L41.1327 16.018C37.0976 15.1066 33.287 14.4435 29.7381 13.9713L29.4743 15.9539ZM46.2277 19.3451C48.0143 19.8299 49.8387 20.3645 51.6981 20.9533L52.3019 19.0467C50.4157 18.4493 48.5646 17.9069 46.7516 17.4149L46.2277 19.3451ZM52.2265 20.974C53.8344 20.6001 55.2573 20.222 56.5235 19.8384L55.9437 17.9243C54.7258 18.2933 53.3459 18.6603 51.7735 19.026L52.2265 20.974ZM60.7304 18.3107C64.6255 16.5905 66.2869 14.7405 67.9216 12.7921L66.3894 11.5067C64.8542 13.3365 63.4263 14.9338 59.9224 16.4812L60.7304 18.3107ZM70.7742 9.67433C72.2739 8.29119 74.3684 6.78329 77.8198 5.13201L76.9566 3.32787C73.3527 5.05212 71.0855 6.66652 69.4182 8.20413L70.7742 9.67433ZM81.7632 3.4278C82.9886 2.94546 84.3362 2.45193 85.8219 1.94677L85.1781 0.0532273C83.6656 0.567479 82.2882 1.07177 81.0306 1.56678L81.7632 3.4278Z" fill="black"/>
</svg>
