<svg width="106" height="22" viewBox="0 0 106 22" fill="none" xmlns="http://www.w3.org/2000/svg">
<path d="M105.755 13.1559C106.117 12.739 106.073 12.1074 105.656 11.7451L98.862 5.84228C98.4451 5.48005 97.8135 5.52437 97.4513 5.94127C97.0891 6.35818 97.1334 6.98979 97.5503 7.35202L103.589 12.599L98.3423 18.638C97.98 19.0549 98.0244 19.6865 98.4413 20.0487C98.8582 20.4109 99.4898 20.3666 99.852 19.9497L105.755 13.1559ZM51.5 20L51.435 20.9979L51.5764 21.0071L51.7149 20.9766L51.5 20ZM0.640128 1.933C2.13673 2.51026 3.54823 3.06947 4.88126 3.61122L5.63426 1.75838C4.28976 1.21197 2.86716 0.648381 1.35987 0.0669983L0.640128 1.933ZM9.04116 5.35234C12.2737 6.7477 14.9612 8.01444 17.2446 9.16539L18.1448 7.37944C15.8242 6.20976 13.1008 4.92634 9.83378 3.51611L9.04116 5.35234ZM21.226 11.2677C24.6227 13.1474 26.8214 14.5859 29.0509 15.866L30.0468 14.1316C27.9923 12.9519 25.5471 11.3732 22.1944 9.51779L21.226 11.2677ZM33.2427 17.9451C35.6093 18.8962 38.337 19.5951 42.2884 20.1371L42.5602 18.1556C38.7186 17.6287 36.1603 16.9621 33.9885 16.0893L33.2427 17.9451ZM46.8721 20.6477C48.2626 20.7738 49.7771 20.8898 51.435 20.9979L51.565 19.0021C49.9207 18.8949 48.4234 18.7801 47.0526 18.6559L46.8721 20.6477ZM51.7149 20.9766C53.1683 20.6569 54.634 20.3489 56.1057 20.0525L55.7107 18.0919C54.2282 18.3905 52.7509 18.7009 51.2851 19.0234L51.7149 20.9766ZM60.5146 19.2006C63.4866 18.6497 66.4564 18.1444 69.3723 17.6823L69.0592 15.7069C66.1283 16.1714 63.1412 16.6797 60.1501 17.2341L60.5146 19.2006ZM73.816 17.004C76.9037 16.5502 79.8959 16.1459 82.7266 15.788L82.4757 13.8038C79.6332 14.1632 76.6276 14.5693 73.5252 15.0252L73.816 17.004ZM87.1894 15.245C90.5323 14.8539 93.5566 14.5348 96.1273 14.2816L95.9312 12.2912C93.3499 12.5455 90.3133 12.8658 86.957 13.2585L87.1894 15.245ZM100.611 13.8619C102.027 13.7369 103.142 13.6457 103.904 13.5858C104.285 13.5559 104.577 13.5337 104.774 13.5191C104.872 13.5118 104.946 13.5064 104.996 13.5028C105.021 13.501 105.04 13.4997 105.052 13.4988C105.058 13.4984 105.063 13.4981 105.066 13.4978C105.067 13.4977 105.068 13.4977 105.069 13.4976C105.069 13.4976 105.07 13.4976 105.07 13.4976C105.07 13.4976 105.07 13.4975 105.07 13.4975C105.07 13.4975 105.07 13.4975 105.07 13.4975C105.07 13.4975 105.07 13.4975 105 12.5C104.93 11.5025 104.93 11.5025 104.93 11.5025C104.93 11.5025 104.93 11.5025 104.93 11.5025C104.93 11.5025 104.93 11.5025 104.93 11.5025C104.929 11.5025 104.929 11.5025 104.929 11.5026C104.928 11.5026 104.926 11.5027 104.925 11.5028C104.921 11.5031 104.916 11.5034 104.91 11.5039C104.897 11.5048 104.878 11.5062 104.852 11.508C104.801 11.5117 104.725 11.5172 104.625 11.5246C104.426 11.5394 104.131 11.5618 103.747 11.5919C102.98 11.6523 101.857 11.744 100.435 11.8697L100.611 13.8619Z" fill="black"/>
</svg>
